<svg xmlns="http://www.w3.org/2000/svg" version="1.1" xmlns:xlink="http://www.w3.org/1999/xlink" xmlns:svgjs="http://svgjs.dev/svgjs" width="1000" height="1000" viewBox="0 0 1000 1000"><rect width="1000" height="1000" fill="#ffffff"></rect><g transform="matrix(0.7,0,0,0.7,149.57575757575756,439.3960366524957)"><svg viewBox="0 0 396 69" data-background-color="#ffffff" preserveAspectRatio="xMidYMid meet" height="174" width="1000" xmlns="http://www.w3.org/2000/svg" xmlns:xlink="http://www.w3.org/1999/xlink"><g id="tight-bounds" transform="matrix(1,0,0,1,0.2400000000000091,-0.1677054927931465)"><svg viewBox="0 0 395.52 69.33541098558628" height="69.33541098558628" width="395.52"><g><svg viewBox="0 0 395.52 69.33541098558628" height="69.33541098558628" width="395.52"><g><svg viewBox="0 0 395.52 69.33541098558628" height="69.33541098558628" width="395.52"><g id="textblocktransform"><svg viewBox="0 0 395.52 69.33541098558628" height="69.33541098558628" width="395.52" id="textblock"><g><svg viewBox="0 0 395.52 69.33541098558628" height="69.33541098558628" width="395.52"><g transform="matrix(1,0,0,1,0,0)"><svg width="395.52" viewBox="2.15 -34.6 256.68 45" height="69.33541098558628" data-palette-color="#111111"><path d="M17.1-34.6L17.1-34.6Q23.05-34.6 27.25-32.15 31.45-29.7 31.45-26.95L31.45-26.95Q31.45-26.2 31.13-25.68 30.8-25.15 30.33-24.93 29.85-24.7 29.3-24.7L29.3-24.7Q28.4-24.7 26.6-25.63 24.8-26.55 22.6-27.48 20.4-28.4 18.55-28.4L18.55-28.4Q15.6-28.4 15.6-26L15.6-26Q15.6-25.25 16.07-24.58 16.55-23.9 17.6-23.18 18.65-22.45 19.65-21.9 20.65-21.35 22.4-20.43 24.15-19.5 25.35-18.8L25.35-18.8Q29.2-16.6 30.75-14.6 32.3-12.6 32.3-10L32.3-10Q32.3 0.35 18.35 0.35L18.35 0.35Q15.6 0.35 13.03-0.2 10.45-0.75 8.53-1.65 6.6-2.55 5.13-3.65 3.65-4.75 2.9-5.9 2.15-7.05 2.15-8.05L2.15-8.05Q2.15-9.15 2.88-9.93 3.6-10.7 5-10.7L5-10.7Q6.05-10.7 10.05-9.38 14.05-8.05 16.5-8.05L16.5-8.05Q18.75-8.05 18.75-9.6L18.75-9.6Q18.75-10.05 18.57-10.43 18.4-10.8 17.98-11.18 17.55-11.55 17.03-11.88 16.5-12.2 15.58-12.7 14.65-13.2 13.73-13.7 12.8-14.2 11.3-15 9.8-15.8 8.4-16.6L8.4-16.6Q6.55-17.65 5.23-19.2 3.9-20.75 3.3-22.28 2.7-23.8 2.7-25.1L2.7-25.1Q2.7-29.3 6.45-31.95 10.2-34.6 17.1-34.6ZM52.7-4.15L52.65-13.4Q52.65-16.25 50.45-16.25L50.45-16.25Q50.05-16.25 49.72-16.15 49.4-16.05 49.12-15.9 48.85-15.75 48.62-15.48 48.4-15.2 48.22-14.88 48.05-14.55 47.97-14.1 47.9-13.65 47.9-13.1L47.9-13.1 47.9-7.6Q47.9-3.5 46.57-1.78 45.25-0.05 42.55-0.05L42.55-0.05Q39.75-0.05 38.45-1.63 37.15-3.2 37.15-7.2L37.15-7.2 37.05-28.5Q37.05-31.6 38.55-33.05 40.05-34.5 42.55-34.5L42.55-34.5Q45.2-34.5 46.55-33.4 47.9-32.3 47.9-28.95L47.9-28.95 47.9-21.7Q51.6-23.95 56.9-23.95L56.9-23.95Q59.3-23.95 60.75-22.73 62.2-21.5 62.9-18.85 63.6-16.2 63.6-11.9L63.6-11.9Q63.6-9.7 63.52-8.1 63.45-6.5 63.3-5.18 63.15-3.85 62.85-3 62.55-2.15 62.15-1.55 61.75-0.95 61.12-0.63 60.5-0.3 59.75-0.15 59 0 57.95 0L57.95 0Q55.15 0 53.92-1.03 52.7-2.05 52.7-4.15L52.7-4.15ZM84.35-11.85L84.35-11.85Q84.35-14.45 83.7-16.43 83.05-18.4 81.8-18.4L81.8-18.4Q80.95-18.4 80.3-17.4 79.65-16.4 79.35-14.95 79.05-13.5 79.05-11.85L79.05-11.85Q79.05-9.3 79.75-7.38 80.45-5.45 81.75-5.45 83.05-5.45 83.7-7.35 84.35-9.25 84.35-11.85ZM81.75 0.35L81.75 0.35Q77.85 0.35 74.72-1.05 71.6-2.45 69.72-5.25 67.85-8.05 67.85-11.8L67.85-11.8Q67.85-17.5 71.75-20.85 75.65-24.2 81.75-24.2 87.85-24.2 91.7-20.85 95.55-17.5 95.55-11.8L95.55-11.8Q95.55-6.15 91.62-2.9 87.7 0.35 81.75 0.35ZM110.79-1.4L110.79 2.9Q110.79 6.95 109.44 8.68 108.09 10.4 105.29 10.4L105.29 10.4Q102.49 10.4 101.19 8.83 99.89 7.25 99.89 3.25L99.89 3.25 99.79-17.85Q99.79-20.95 101.29-22.4 102.79-23.85 105.29-23.85L105.29-23.85Q107.24-23.85 108.44-23.38 109.64-22.9 110.24-21.5L110.24-21.5Q113.69-24.2 117.64-24.2L117.64-24.2Q121.64-24.2 124.19-20.85 126.74-17.5 126.74-11.75L126.74-11.75Q126.74-6.15 124.14-2.93 121.54 0.3 117.59 0.3L117.59 0.3Q113.79 0.3 110.79-1.4L110.79-1.4ZM110.79-16.55L110.79-7.25Q111.64-5.85 113.04-5.85L113.04-5.85Q114.39-5.85 115.14-7.65 115.89-9.45 115.89-11.75L115.89-11.75Q115.89-14.2 115.09-16.1 114.29-18 112.99-18L112.99-18Q111.64-18 110.79-16.55L110.79-16.55ZM161.34-5.2L161.34-18.3 155.09-5.5Q154.29-3.9 153.39-3.23 152.49-2.55 151.24-2.55L151.24-2.55Q149.64-2.55 148.54-3.68 147.44-4.8 145.69-7.75L145.69-7.75 139.89-18.3 139.89-4.15Q139.89-2 138.92-1 137.94 0 135.99 0L135.99 0Q133.79 0 132.79-0.98 131.79-1.95 131.79-4.8L131.79-4.8 131.79-26.6Q131.79-30.45 133.54-32.4 135.29-34.35 139.44-34.35L139.44-34.35Q140.99-34.35 142.14-33.83 143.29-33.3 143.87-32.63 144.44-31.95 144.99-30.95L144.99-30.95 151.69-16.3 158.79-30.7Q160.64-34.3 165.44-34.3L165.44-34.3Q167.69-34.3 169.29-33.52 170.89-32.75 171.81-31.03 172.74-29.3 172.74-26.7L172.74-26.7 172.74-4.95Q172.69 0 166.49 0L166.49 0Q164.24 0 162.81-1.23 161.39-2.45 161.34-5.2L161.34-5.2ZM186.69 0.3L186.69 0.3Q182.74 0.3 180.14-2.93 177.54-6.15 177.54-11.75L177.54-11.75Q177.54-17.45 180.11-20.83 182.69-24.2 186.69-24.2L186.69-24.2Q190.74-24.2 194.19-21.35L194.19-21.35Q195.54-23.85 198.54-23.85L198.54-23.85Q201.24-23.85 202.74-22.68 204.24-21.5 204.24-18.35L204.24-18.35 204.24-5.35Q204.24-2.35 202.99-1.18 201.74 0 198.59 0L198.59 0Q195.29 0 194.24-1.85L194.24-1.85Q191.04 0.3 186.69 0.3ZM193.49-7.2L193.49-16.55Q192.64-18 191.29-18L191.29-18Q189.99-18 189.19-16.1 188.39-14.2 188.39-11.75L188.39-11.75Q188.39-9.45 189.14-7.65 189.89-5.85 191.24-5.85L191.24-5.85Q192.64-5.85 193.49-7.2L193.49-7.2ZM211.44-10.7L211.44-10.7 211.44-16.6Q210.19-16.65 209.44-17.03 208.69-17.4 208.36-18 208.03-18.6 208.03-19.5L208.03-19.5Q208.03-22.35 211.48-22.6L211.48-22.6 211.48-27.25Q211.48-29.15 214.23-30.68 216.98-32.2 219.69-32.2L219.69-32.2Q221.33-32.2 221.83-31.25 222.33-30.3 222.33-28.4L222.33-28.4 222.38-22.65 223.73-22.65Q226.48-22.65 227.51-21.93 228.53-21.2 228.53-19.3L228.53-19.3Q228.53-18.5 228.23-17.95 227.94-17.4 227.26-17.1 226.58-16.8 225.63-16.68 224.69-16.55 223.28-16.55L223.28-16.55 222.38-16.55 222.38-11.05Q222.38-10.25 222.46-9.73 222.53-9.2 222.69-8.9 222.83-8.6 223.11-8.5 223.38-8.4 223.78-8.4L223.78-8.4Q224.38-8.4 224.78-8.83 225.19-9.25 225.41-9.78 225.63-10.3 226.01-10.73 226.38-11.15 226.88-11.15L226.88-11.15Q228.03-11.15 228.66-10.6 229.28-10.05 229.28-9.25L229.28-9.25Q229.28-7.9 228.76-6.35 228.23-4.8 227.23-3.35 226.23-1.9 224.46-0.95 222.69 0 220.48 0L220.48 0Q215.53 0 213.48-2.5 211.44-5 211.44-10.7ZM246.98 0.3L246.98 0.3Q240.88 0.3 236.91-2.85 232.93-6 232.93-11.45L232.93-11.45Q232.93-17.35 236.86-20.78 240.78-24.2 246.98-24.2L246.98-24.2Q252.83-24.2 255.56-22.13 258.28-20.05 258.28-16.45L258.28-16.45Q258.28-15.75 258.11-15.1 257.93-14.45 257.56-13.83 257.18-13.2 256.56-12.68 255.93-12.15 255.13-11.73 254.33-11.3 253.23-11.08 252.13-10.85 250.88-10.85L250.88-10.85 243.83-10.8Q244.33-9.2 245.63-8.28 246.93-7.35 248.93-7.35L248.93-7.35Q251.08-7.35 253.33-7.9L253.33-7.9Q254.28-8.15 255.41-8.7 256.53-9.25 257.03-9.25L257.03-9.25Q257.88-9.25 258.36-8.75 258.83-8.25 258.83-7.5L258.83-7.5Q258.83-6.6 258.03-5.33 257.23-4.05 255.81-2.78 254.38-1.5 252.03-0.6 249.68 0.3 246.98 0.3ZM243.58-14L243.58-14Q247.03-14.05 247.33-14.05L247.33-14.05Q248.08-14.05 248.43-14.95L248.43-14.95Q248.68-15.6 248.68-16.75L248.68-16.75Q248.68-19.9 246.78-19.9L246.78-19.9Q246.08-19.9 245.41-19.15 244.73-18.4 244.23-17.03 243.73-15.65 243.58-14Z" opacity="1" transform="matrix(1,0,0,1,0,0)" fill="#000000" class="wordmark-text-0" data-fill-palette-color="primary" id="text-0"></path></svg></g></svg></g></svg></g></svg></g><g></g></svg></g><defs></defs></svg><rect width="395.52" height="69.33541098558628" fill="none" stroke="none" visibility="hidden"></rect></g></svg></g></svg>